<?xml version="1.0" encoding="UTF-8" standalone="no" ?>
<!DOCTYPE svg PUBLIC "-//W3C//DTD SVG 1.1//EN" "http://www.w3.org/Graphics/SVG/1.1/DTD/svg11.dtd">
<svg xmlns="http://www.w3.org/2000/svg" xmlns:xlink="http://www.w3.org/1999/xlink" version="1.1" width="1080" height="1080" viewBox="0 0 1080 1080" xml:space="preserve">
<desc>Created with Fabric.js 5.2.4</desc>
<defs>
</defs>
<g transform="matrix(1 0 0 1 540 540)" id="17435010-980f-4094-b3c7-4ba7e3711a61"  >
<rect style="stroke: none; stroke-width: 1; stroke-dasharray: none; stroke-linecap: butt; stroke-dashoffset: 0; stroke-linejoin: miter; stroke-miterlimit: 4; fill: rgb(255,255,255); fill-rule: nonzero; opacity: 1; visibility: hidden;" vector-effect="non-scaling-stroke"  x="-540" y="-540" rx="0" ry="0" width="1080" height="1080" />
</g>
<g transform="matrix(1 0 0 1 540 540)" id="9d3d01d8-974f-496f-8816-bee03bb669c6"  >
</g>
<g transform="matrix(45 0 0 45 540 540)"  >
<g style=""   >
		<g transform="matrix(1 0 0 1 -1.24 0)"  >
<path style="stroke: none; stroke-width: 1; stroke-dasharray: none; stroke-linecap: butt; stroke-dashoffset: 0; stroke-linejoin: miter; stroke-miterlimit: 4; fill: rgb(9,9,11); fill-rule: nonzero; opacity: 1;" vector-effect="non-scaling-stroke"  transform=" translate(-10.76, -12)" d="M 4.2059 2.83818 C 6.36324 2.54915 8.56444 2.39999 10.8 2.39999 C 13.0356 2.39999 15.2368 2.54915 17.3941 2.83818 C 18.8902 3.03861 20.0089 4.16796 20.3157 5.55996 C 20.091 5.51787 19.8601 5.48982 19.6237 5.47691 C 18.6887 5.42585 17.7472 5.39999 16.8 5.39999 C 15.8528 5.39999 14.9113 5.42585 13.9763 5.47691 C 11.075 5.63537 9.00001 8.07287 9.00001 10.7975 L 9.00001 13.4852 C 9.00001 15.1814 9.80411 16.7671 11.1125 17.7603 L 7.53641 21.3364 C 7.27901 21.5938 6.8919 21.6708 6.5556 21.5315 C 6.21929 21.3922 6.00001 21.064 6.00001 20.7 L 6.00001 16.5688 C 5.39878 16.5105 4.80068 16.4415 4.20593 16.3618 C 2.4401 16.1252 1.20001 14.5946 1.20001 12.8654 L 1.20001 6.33462 C 1.20001 4.60541 2.44006 3.07475 4.2059 2.83818 Z" stroke-linecap="round" />
</g>
		<g transform="matrix(1 0 0 1 4.8 1.8)"  >
<path style="stroke: none; stroke-width: 1; stroke-dasharray: none; stroke-linecap: butt; stroke-dashoffset: 0; stroke-linejoin: miter; stroke-miterlimit: 4; fill: rgb(9,9,11); fill-rule: nonzero; opacity: 1;" vector-effect="non-scaling-stroke"  transform=" translate(-16.8, -13.8)" d="M 16.8 7.19999 C 15.8855 7.19999 14.9768 7.22495 14.0745 7.27424 C 12.1887 7.37723 10.8 8.96654 10.8 10.7975 L 10.8 13.4852 C 10.8 15.3078 12.176 16.8924 14.0522 17.0071 C 14.3086 17.0228 14.5655 17.0365 14.8229 17.0482 C 15.0631 17.0592 15.284 17.1568 15.4443 17.3171 L 18.2636 20.1364 C 18.521 20.3938 18.9081 20.4708 19.2444 20.3315 C 19.5807 20.1922 19.8 19.864 19.8 19.5 L 19.8 17.0154 C 21.5431 16.7817 22.8 15.2598 22.8 13.5178 L 22.8 10.7975 C 22.8 8.96653 21.4113 7.37723 19.5256 7.27423 C 18.6232 7.22495 17.7145 7.19999 16.8 7.19999 Z" stroke-linecap="round" />
</g>
</g>
</g>
</svg>